# xmcd CD database file
#
# Track frame offsets:
#	150
#	11856
#	24659
#	38552
#	54958
#	70385
#	76412
#	86173
#	97238
#	105169
#	113010
#	136145
#	150548
#	161394
#	180595
#	189569
#	204632
#	213808
#	223742
#	233972
#	252653
#
# Disc length: 3509 seconds
#
# Revision: 0
# Processed by: cddbd v1.5.2PL0 Copyright (c) Steve Scherf et al.
# Submitted via: CDex 1.70beta2
#
DISCID=1d0db315
DTITLE=Glenn Miller - Glenn Miller AEF Band CD1
DYEAR=1900
DGENRE=Jazz
TTITLE0=Mission to Moscow
TTITLE1=Time alone will tell
TTITLE2=G.I. Jive
TTITLE3=Long ago and far away
TTITLE4=I've got a heart filled with love (for you dear)
TTITLE5=Stompin' at The Savoy
TTITLE6=Why dream ?
TTITLE7=7.0.5.
TTITLE8=My Buddy
TTITLE9=El captain
TTITLE10=Moon dreams
TTITLE11=People will say we're in love
TTITLE12=Enlisted men's mess
TTITLE13=Oh what a beautiful mornin'
TTITLE14=Blue champagne
TTITLE15=There are yanks
TTITLE16=I'll be around
TTITLE17=The way you look tonight
TTITLE18=Jeep jockey jump
TTITLE19=Symphony
TTITLE20=Guns in the sky
EXTD=
EXTT0=
EXTT1=
EXTT2=
EXTT3=
EXTT4=
EXTT5=
EXTT6=
EXTT7=
EXTT8=
EXTT9=
EXTT10=
EXTT11=
EXTT12=
EXTT13=
EXTT14=
EXTT15=
EXTT16=
EXTT17=
EXTT18=
EXTT19=
EXTT20=
PLAYORDER=
